<?xml version="1.0" encoding="utf-8"?>
<svg xmlns="http://www.w3.org/2000/svg" xmlns:xlink="http://www.w3.org/1999/xlink" version="1.1" id="Layer_1" x="0px" y="0px" width="96px" height="33px" viewBox="-50 -17.251 400 136" enable-background="new -50 -17.251 400 136" xml:space="preserve"><g>
  <polygon class="logo" fill="#112146" points="310.4,103.2 316.4,103.2 316.4,118.7 320.1,118.7 320.1,103.2 326.1,103.2 326.1,99.6 310.4,99.6"></polygon>
  <polygon class="logo" fill="#112146" points="339.3,112.5 334.4,99.6 328.8,99.6 328.8,118.7 332.5,118.7 332.5,104.4 337.3,116.9 341.3,116.9 346,104.4 346,118.7 349.9,118.7 349.9,99.6 344.3,99.6"></polygon>
  <path class="logo" fill="#112146" d="M316.406-17.252c-7.465 0-14.589 4.919-16.941 11.703c-0.446 1.294-14.758 55.383-20.396 76.7 l-24.629-88.403h-37.243l-24.635 88.247l-23.491-88.247H-49.853v118.121c0 9.9 8 17.9 17.9 17.876h17.874V68.433h46.888 V35.695h-46.864V15.392h63.748v103.353h35.75V68.433h46.888V35.695H85.396V15.392h56.185L171.7 118.745h40.681l23.202-79.362 l23.202 79.362h40.681l39.631-135.997H316.406z"></path>
</g></svg>
